<?xml version="1.0" encoding="utf-8"?>
<!-- Generator: Adobe Illustrator 18.0.0, SVG Export Plug-In . SVG Version: 6.00 Build 0)  -->
<!DOCTYPE svg PUBLIC "-//W3C//DTD SVG 1.1//EN" "http://www.w3.org/Graphics/SVG/1.1/DTD/svg11.dtd">
<svg version="1.1" id="Layer_1" xmlns="http://www.w3.org/2000/svg" xmlns:xlink="http://www.w3.org/1999/xlink" x="0px" y="0px"
	 viewBox="0 0 784 295" enable-background="new 0 0 784 295" xml:space="preserve">
<path fill="#FFFFFF" d="M201.2,86.9c28.7,0,52.3,23.5,52.3,52.3s-23.5,52.3-52.3,52.3S149,167.9,149,139.2S172.5,86.9,201.2,86.9
	 M201.2,67.9c-39.4,0-71.3,31.8-71.3,71.3s31.8,71.3,71.3,71.3s71.3-31.8,71.3-71.3S240.7,67.9,201.2,67.9L201.2,67.9z"/>
<path fill="#FFFFFF" d="M607.2,86.9c28.7,0,52.3,23.5,52.3,52.3s-23.5,52.3-52.3,52.3S555,167.9,555,139.2S578.3,86.9,607.2,86.9
	 M607.2,67.9c-39.4,0-71.3,31.8-71.3,71.3s31.8,71.3,71.3,71.3c39.4,0,71.3-31.8,71.3-71.3S646.4,67.9,607.2,67.9L607.2,67.9z"/>
<path fill="#FFFFFF" d="M80.1,191.5c-28.7,0-52.3-23.5-52.3-52.3c0-28.7,23.5-52.3,52.3-52.3c15,0,28.6,6.4,38.2,16.7
	c2.6-6.1,5.9-11.9,9.7-17.2c-12.6-11.5-29.4-18.5-47.9-18.5c-39.4,0-71.3,31.8-71.3,71.3c0,39.4,31.8,71.3,71.3,71.3
	c18.5,0,35.3-7,47.9-18.5c-3.8-5.3-7.1-11.1-9.7-17.2C108.7,185,95.1,191.5,80.1,191.5z"/>
<path fill="#FFFFFF" d="M364.4,168.2c0-10.9-4.2-20.9-11-28.4c-1.6-1.7-3.3-3.3-5.1-4.7c0,0,0,0,0,0c-6.6-5.2-14.8-8.6-23.7-9.1
	c-0.8,0.1-1.6,0.2-2.3,0.2c-10.9,0-19.7-8.8-19.7-19.7c0-10.9,8.8-19.7,19.7-19.7c4.4,0,8.5,1.5,11.8,4l13.5-13.5
	c-6.8-5.9-15.7-9.5-25.3-9.5c-21.4,0-38.7,17.3-38.7,38.7h0.2c0,21.4,17.1,38.7,38.5,38.7h0.2v0c12.7,0.1,23,10.5,23,23.3
	c0,12.8-10.5,23.3-23.3,23.3c-12.8,0-23.3-10.5-23.3-23.3c0-0.1,0-0.2,0-0.2h-19c0,0.1,0,0.2,0,0.2c0,23.3,19,42.3,42.3,42.3
	c23.3,0,42.3-19,42.3-42.3c0-1.5-0.1-2.9-0.2-4.4V168.2z"/>
<path fill="#FFFFFF" d="M754.2,135.1c0,0,0.1-0.1,0.1-0.1c-6.6-5.2-14.8-8.5-23.7-9c-0.8,0.1-1.6,0.2-2.4,0.2
	c-10.9,0-19.7-8.8-19.7-19.7c0-10.9,9-19.7,19.7-19.7c4.4,0,8.5,1.5,11.9,4l13.5-13.5c-6.8-5.9-15.7-9.5-25.4-9.5
	c-21.4,0-38.7,17.3-38.7,38.7c0,0.7,0,1.4,0.1,2.1c0,0.2,0,0.4,0.1,0.7c0,0.5,0.1,0.9,0.1,1.4c0,0.3,0.1,0.5,0.1,0.8
	c0.1,0.4,0.1,0.8,0.2,1.2c0,0.3,0.1,0.6,0.1,0.8c0.1,0.4,0.1,0.8,0.2,1.1c0.1,0.3,0.1,0.6,0.2,0.8c0.1,0.4,0.2,0.7,0.3,1.1
	c0.1,0.3,0.2,0.6,0.2,0.8c0.1,0.4,0.2,0.7,0.3,1.1c0.1,0.3,0.2,0.5,0.3,0.8c0.1,0.4,0.2,0.7,0.4,1.1c0.1,0.3,0.2,0.5,0.3,0.8
	c0.1,0.3,0.3,0.7,0.4,1c0.1,0.3,0.2,0.5,0.3,0.8c0.2,0.3,0.3,0.7,0.5,1c0.1,0.2,0.2,0.5,0.4,0.7c0.2,0.3,0.4,0.7,0.6,1
	c0.1,0.2,0.3,0.5,0.4,0.7c0.2,0.3,0.4,0.7,0.6,1c0.1,0.2,0.3,0.4,0.4,0.6c0.2,0.3,0.5,0.7,0.7,1c0.1,0.2,0.3,0.4,0.4,0.6
	c0.3,0.3,0.5,0.7,0.8,1c0.1,0.2,0.3,0.3,0.4,0.5c0.3,0.4,0.6,0.7,1,1.1c0.1,0.1,0.2,0.2,0.3,0.3c0.9,1,1.8,1.9,2.8,2.8l0,0
	c6.9,6.2,16,10,26,10h0l0,0c12.8,0,23.3,10.5,23.3,23.3c0,12.8-10.5,23.3-23.3,23.3c-12.8,0-23.3-10.5-23.3-23.3c0-0.1,0-0.2,0-0.2
	h-19c0,0.1,0,0.2,0,0.2c0,23.3,19,42.3,42.3,42.3c23.3,0,42.3-19,42.3-42.3C770.5,154.9,764.1,142.9,754.2,135.1z"/>
<path fill="#FFFFFF" d="M481.3,67.9c-12.4,0-23.5,5.6-30.9,14.4c-7.4-8.8-18.5-14.4-30.9-14.4c-22.3,0-40.4,18.1-40.4,40.4v61.8h0
	c-0.5,14.6-6.4,27.7-15.9,37.5l13.4,13.4c12.8-13.2,20.9-31,21.5-50.7h0.1v-27.7v-34.3c0-11.9,9.5-21.4,21.4-21.4
	s21.4,9.5,21.4,21.4v34.3v67.6h19v-67.6v-34.3c0-11.9,9.5-21.4,21.4-21.4s21.4,9.5,21.4,21.4v34.3v67.6h19V108.3
	C521.7,86,503.7,67.9,481.3,67.9z"/>
</svg>
